# xmcd
#
# Track frame offsets: 
#        182
#        20367
#        45992
#        74012
#        97827
#        127865
#        146280
#        163355
#        182727
#        214115
#        239047
#        255287
#        275307
#
# Disc length: 4173 seconds
#
# Revision: 20
# Processed by: cddbd v1.5.2PL0 Copyright (c) Steve Scherf et al.
# Submitted via: ExactAudioCopy v1.0b4
#
DISCID=b1104b0d
DTITLE=Charlie Haden and Pat Metheny - Beyond The Missouri Sky (Short St
DTITLE=ories)
DYEAR=1997
DGENRE=Jazz
TTITLE0=Waltz for Ruth
TTITLE1=Our Spanish Love Song 
TTITLE2=Message to a Friend
TTITLE3=Two for the Road
TTITLE4=First Song  (for Ruth)
TTITLE5=The Moon Is a Harsh Mistress
TTITLE6=The Precious Jewel
TTITLE7=He's Gone Away
TTITLE8=The Moon Song
TTITLE9=Tears of Rain
TTITLE10=Cinema Paradiso (love theme)
TTITLE11=Cinema Paradiso (main theme)
TTITLE12=Spiritual
EXTD=YEAR: 1997
EXTT0=
EXTT1=
EXTT2=
EXTT3=
EXTT4=(for Ruth)
EXTT5=
EXTT6=
EXTT7=
EXTT8=
EXTT9=
EXTT10=(love theme)
EXTT11=(Main Theme)
EXTT12=
PLAYORDER=
